<svg xmlns="http://www.w3.org/2000/svg" width="359" height="64" viewBox="0 0 359 64" role="img"><defs></defs><rect x="2" y="5" width="54" height="54" fill="#25222f" stroke="#3a3649"/><path d="M54.0 7.0V57.0H4.0" fill="none" stroke="#2d2a3a" stroke-width="3.0"/><g transform="translate(17.119999999999997 20.119999999999997) scale(0.9900000000000001)" fill="none" stroke="#8b74ff" stroke-width="2.2" stroke-linecap="round" stroke-linejoin="round"><rect x="3" y="3" width="18" height="7" rx="1"/><rect x="3" y="14" width="18" height="7" rx="1"/><path d="M7 6.5h.01M7 17.5h.01"/></g><path fill="#f1ede4" d="M76.00 21.50h3.00v3.00h-3.00zM88.00 21.50h3.00v3.00h-3.00zM76.00 24.50h6.00v3.00h-6.00zM88.00 24.50h3.00v3.00h-3.00zM76.00 27.50h3.00v3.00h-3.00zM82.00 27.50h3.00v3.00h-3.00zM88.00 27.50h3.00v3.00h-3.00zM76.00 30.50h3.00v3.00h-3.00zM85.00 30.50h6.00v3.00h-6.00zM76.00 33.50h3.00v3.00h-3.00zM88.00 33.50h3.00v3.00h-3.00zM76.00 36.50h3.00v3.00h-3.00zM88.00 36.50h3.00v3.00h-3.00zM76.00 39.50h3.00v3.00h-3.00zM88.00 39.50h3.00v3.00h-3.00zM102.00 21.50h9.00v3.00h-9.00zM99.00 24.50h3.00v3.00h-3.00zM111.00 24.50h3.00v3.00h-3.00zM99.00 27.50h3.00v3.00h-3.00zM111.00 27.50h3.00v3.00h-3.00zM99.00 30.50h15.00v3.00h-15.00zM99.00 33.50h3.00v3.00h-3.00zM111.00 33.50h3.00v3.00h-3.00zM99.00 36.50h3.00v3.00h-3.00zM111.00 36.50h3.00v3.00h-3.00zM99.00 39.50h3.00v3.00h-3.00zM111.00 39.50h3.00v3.00h-3.00zM125.00 21.50h12.00v3.00h-12.00zM122.00 24.50h3.00v3.00h-3.00zM122.00 27.50h3.00v3.00h-3.00zM125.00 30.50h9.00v3.00h-9.00zM134.00 33.50h3.00v3.00h-3.00zM134.00 36.50h3.00v3.00h-3.00zM122.00 39.50h12.00v3.00h-12.00zM162.00 30.50h3.00v3.00h-3.00zM193.00 21.50h12.00v3.00h-12.00zM190.00 24.50h3.00v3.00h-3.00zM190.00 27.50h3.00v3.00h-3.00zM193.00 30.50h9.00v3.00h-9.00zM202.00 33.50h3.00v3.00h-3.00zM202.00 36.50h3.00v3.00h-3.00zM190.00 39.50h12.00v3.00h-12.00zM213.00 21.50h15.00v3.00h-15.00zM219.00 24.50h3.00v3.00h-3.00zM219.00 27.50h3.00v3.00h-3.00zM219.00 30.50h3.00v3.00h-3.00zM219.00 33.50h3.00v3.00h-3.00zM219.00 36.50h3.00v3.00h-3.00zM219.00 39.50h3.00v3.00h-3.00zM239.00 21.50h9.00v3.00h-9.00zM236.00 24.50h3.00v3.00h-3.00zM248.00 24.50h3.00v3.00h-3.00zM236.00 27.50h3.00v3.00h-3.00zM248.00 27.50h3.00v3.00h-3.00zM236.00 30.50h3.00v3.00h-3.00zM248.00 30.50h3.00v3.00h-3.00zM236.00 33.50h3.00v3.00h-3.00zM248.00 33.50h3.00v3.00h-3.00zM236.00 36.50h3.00v3.00h-3.00zM248.00 36.50h3.00v3.00h-3.00zM239.00 39.50h9.00v3.00h-9.00zM259.00 21.50h12.00v3.00h-12.00zM259.00 24.50h3.00v3.00h-3.00zM271.00 24.50h3.00v3.00h-3.00zM259.00 27.50h3.00v3.00h-3.00zM271.00 27.50h3.00v3.00h-3.00zM259.00 30.50h12.00v3.00h-12.00zM259.00 33.50h3.00v3.00h-3.00zM265.00 33.50h3.00v3.00h-3.00zM259.00 36.50h3.00v3.00h-3.00zM268.00 36.50h3.00v3.00h-3.00zM259.00 39.50h3.00v3.00h-3.00zM271.00 39.50h3.00v3.00h-3.00zM285.00 21.50h9.00v3.00h-9.00zM282.00 24.50h3.00v3.00h-3.00zM294.00 24.50h3.00v3.00h-3.00zM282.00 27.50h3.00v3.00h-3.00zM294.00 27.50h3.00v3.00h-3.00zM282.00 30.50h15.00v3.00h-15.00zM282.00 33.50h3.00v3.00h-3.00zM294.00 33.50h3.00v3.00h-3.00zM282.00 36.50h3.00v3.00h-3.00zM294.00 36.50h3.00v3.00h-3.00zM282.00 39.50h3.00v3.00h-3.00zM294.00 39.50h3.00v3.00h-3.00zM308.00 21.50h12.00v3.00h-12.00zM305.00 24.50h3.00v3.00h-3.00zM305.00 27.50h3.00v3.00h-3.00zM305.00 30.50h3.00v3.00h-3.00zM311.00 30.50h9.00v3.00h-9.00zM305.00 33.50h3.00v3.00h-3.00zM317.00 33.50h3.00v3.00h-3.00zM305.00 36.50h3.00v3.00h-3.00zM317.00 36.50h3.00v3.00h-3.00zM308.00 39.50h12.00v3.00h-12.00zM328.00 21.50h15.00v3.00h-15.00zM328.00 24.50h3.00v3.00h-3.00zM328.00 27.50h3.00v3.00h-3.00zM328.00 30.50h12.00v3.00h-12.00zM328.00 33.50h3.00v3.00h-3.00zM328.00 36.50h3.00v3.00h-3.00zM328.00 39.50h15.00v3.00h-15.00z"/></svg>